# xmcd
#
# Track frame offsets: 
#        150
#        11542
#        23306
#        33115
#        46910
#        61860
#        75081
#        87046
#        98111
#        106682
#        124265
#        136933
#
# Disc length: 2008 seconds
#
# Revision: 0
# Processed by: cddbd v1.5.2PL0 Copyright (c) Steve Scherf et al.
# Submitted via: ExactAudioCopy v1.3
#
DISCID=7407d60c
DTITLE=Lynn Anderson - American Country
DYEAR=2010
DGENRE=Country
TTITLE0=Listen To A Country Song
TTITLE1=How Can I Unlove You
TTITLE2=What A Man My Man Is
TTITLE3=Paradise
TTITLE4=Faithless Love
TTITLE5=Rose Garden
TTITLE6=Even Cowgirls Get The Blues (Live)
TTITLE7=Someday Soon
TTITLE8=Ride, Ride, Ride
TTITLE9=The Worst Is Yet To Come (Live)
TTITLE10=Top Of The World
TTITLE11=Cry
EXTD=
EXTT0=
EXTT1=
EXTT2=
EXTT3=
EXTT4=
EXTT5=
EXTT6=
EXTT7=
EXTT8=
EXTT9=
EXTT10=
EXTT11=
PLAYORDER=
